{
  "accessors": [
    {
      "bufferView": 2,
      "componentType": 5126,
      "count": 60,
      "max": [
        -0.37230199575424194,
        0.035282500088214874,
        -0.9370710253715515
      ],
      "min": [
        -0.4086970090866089,
        -0.05918949842453003,
        -0.962037980556488
      ],
      "type": "VEC3",
      "byteOffset": 0
    },
    {
      "bufferView": 2,
      "byteOffset": 720,
      "componentType": 5126,
      "count": 60,
      "max": [
        1,
        1,
        0
      ],
      "min": [
        -1,
        -1,
        -1
      ],
      "type": "VEC3"
    },
    {
      "bufferView": 3,
      "componentType": 5126,
      "count": 60,
      "max": [
        1,
        0.00001006199909170391,
        1,
        1
      ],
      "min": [
        0,
        -0.00002089728877763264,
        -1,
        1
      ],
      "type": "VEC4",
      "byteOffset": 0
    },
    {
      "bufferView": 1,
      "componentType": 5126,
      "count": 60,
      "max": [
        0.9671239852905273,
        0.14609499275684357
      ],
      "min": [
        0.611503005027771,
        0.07386550307273865
      ],
      "type": "VEC2",
      "byteOffset": 0
    },
    {
      "bufferView": 0,
      "componentType": 5125,
      "count": 90,
      "type": "SCALAR",
      "byteOffset": 0
    },
    {
      "bufferView": 2,
      "byteOffset": 1440,
      "componentType": 5126,
      "count": 195,
      "max": [
        -0.32764700055122375,
        -0.131864994764328,
        -0.4772320091724396
      ],
      "min": [
        -0.4664210081100464,
        -0.415134996175766,
        -0.7605010271072388
      ],
      "type": "VEC3"
    },
    {
      "bufferView": 2,
      "byteOffset": 3780,
      "componentType": 5126,
      "count": 195,
      "max": [
        1,
        0.9995909929275513,
        0.9995908737182617
      ],
      "min": [
        -1,
        -0.9995909929275513,
        -0.9995909929275513
      ],
      "type": "VEC3"
    },
    {
      "bufferView": 3,
      "byteOffset": 960,
      "componentType": 5126,
      "count": 195,
      "max": [
        1,
        0.9729492664337158,
        0.23112519085407257,
        1
      ],
      "min": [
        -0.629548192024231,
        -0.9729359745979309,
        -0.23110108077526093,
        1
      ],
      "type": "VEC4"
    },
    {
      "bufferView": 1,
      "byteOffset": 480,
      "componentType": 5126,
      "count": 195,
      "max": [
        0.6942059993743896,
        0.7447469830513
      ],
      "min": [
        0.001992030069231987,
        0.41772499680519104
      ],
      "type": "VEC2"
    },
    {
      "bufferView": 0,
      "byteOffset": 360,
      "componentType": 5125,
      "count": 360,
      "type": "SCALAR"
    },
    {
      "bufferView": 2,
      "byteOffset": 6120,
      "componentType": 5126,
      "count": 195,
      "max": [
        0.4664210081100464,
        -0.12829400599002838,
        -0.4736599922180176
      ],
      "min": [
        0.32764700055122375,
        -0.4187059998512268,
        -0.7640730142593384
      ],
      "type": "VEC3"
    },
    {
      "bufferView": 2,
      "byteOffset": 8460,
      "componentType": 5126,
      "count": 195,
      "max": [
        1,
        0.9818925857543945,
        0.9818925857543945
      ],
      "min": [
        -1,
        -0.9818925261497498,
        -0.9818925857543945
      ],
      "type": "VEC3"
    },
    {
      "bufferView": 3,
      "byteOffset": 4080,
      "componentType": 5126,
      "count": 195,
      "max": [
        0.6295478940010071,
        0.07116352021694183,
        0.9974766969680786,
        -1
      ],
      "min": [
        -1,
        -0.07120586931705475,
        -0.9974667429924011,
        -1
      ],
      "type": "VEC4"
    },
    {
      "bufferView": 1,
      "byteOffset": 2040,
      "componentType": 5126,
      "count": 195,
      "max": [
        0.6942059993743896,
        0.7447469830513
      ],
      "min": [
        0.001992030069231987,
        0.41772499680519104
      ],
      "type": "VEC2"
    },
    {
      "bufferView": 0,
      "byteOffset": 1800,
      "componentType": 5125,
      "count": 360,
      "type": "SCALAR"
    },
    {
      "bufferView": 2,
      "byteOffset": 10800,
      "componentType": 5126,
      "count": 60,
      "max": [
        0.41031399369239807,
        0.035282500088214874,
        0.9639719724655151
      ],
      "min": [
        0.31932199001312256,
        -0.05918949842453003,
        0.9390050172805786
      ],
      "type": "VEC3"
    },
    {
      "bufferView": 2,
      "byteOffset": 11520,
      "componentType": 5126,
      "count": 60,
      "max": [
        1,
        1,
        1
      ],
      "min": [
        -1,
        -1,
        0
      ],
      "type": "VEC3"
    },
    {
      "bufferView": 3,
      "byteOffset": 7200,
      "componentType": 5126,
      "count": 60,
      "max": [
        0.00001006180355034303,
        1,
        1,
        -1
      ],
      "min": [
        0,
        0,
        -1,
        -1
      ],
      "type": "VEC4"
    },
    {
      "bufferView": 1,
      "byteOffset": 3600,
      "componentType": 5126,
      "count": 60,
      "max": [
        0.9980080127716064,
        0.20455999672412872
      ],
      "min": [
        0.9084410071372986,
        0.06782980263233185
      ],
      "type": "VEC2"
    },
    {
      "bufferView": 0,
      "byteOffset": 3240,
      "componentType": 5125,
      "count": 90,
      "type": "SCALAR"
    },
    {
      "bufferView": 2,
      "byteOffset": 12240,
      "componentType": 5126,
      "count": 195,
      "max": [
        -0.32764700055122375,
        -0.1304280012845993,
        0.6792590022087097
      ],
      "min": [
        -0.4664210081100464,
        -0.4165720045566559,
        0.39311501383781433
      ],
      "type": "VEC3"
    },
    {
      "bufferView": 2,
      "byteOffset": 14580,
      "componentType": 5126,
      "count": 195,
      "max": [
        1,
        0.9971065521240234,
        0.9971065521240234
      ],
      "min": [
        -1,
        -0.9971064925193787,
        -0.9971064925193787
      ],
      "type": "VEC3"
    },
    {
      "bufferView": 3,
      "byteOffset": 8160,
      "componentType": 5126,
      "count": 195,
      "max": [
        1,
        0.7588236927986145,
        0.6513659954071045,
        1
      ],
      "min": [
        -0.629548192024231,
        -0.7588390707969666,
        -0.6513196229934692,
        1
      ],
      "type": "VEC4"
    },
    {
      "bufferView": 1,
      "byteOffset": 4080,
      "componentType": 5126,
      "count": 195,
      "max": [
        0.6942059993743896,
        0.7447469830513
      ],
      "min": [
        0.001992030069231987,
        0.41772499680519104
      ],
      "type": "VEC2"
    },
    {
      "bufferView": 0,
      "byteOffset": 3600,
      "componentType": 5125,
      "count": 360,
      "type": "SCALAR"
    },
    {
      "bufferView": 2,
      "byteOffset": 16920,
      "componentType": 5126,
      "count": 540,
      "max": [
        0.0008355400059372187,
        0.4187059998512268,
        1
      ],
      "min": [
        -0.47856101393699646,
        -0.273499995470047,
        -1
      ],
      "type": "VEC3"
    },
    {
      "bufferView": 2,
      "byteOffset": 23400,
      "componentType": 5126,
      "count": 540,
      "max": [
        0.960902750492096,
        1,
        1
      ],
      "min": [
        -1,
        -1,
        -1
      ],
      "type": "VEC3"
    },
    {
      "bufferView": 3,
      "byteOffset": 11280,
      "componentType": 5126,
      "count": 540,
      "max": [
        1,
        1,
        0.9963012337684631,
        1
      ],
      "min": [
        -1,
        -0.9557749629020691,
        -1,
        1
      ],
      "type": "VEC4"
    },
    {
      "bufferView": 1,
      "byteOffset": 5640,
      "componentType": 5126,
      "count": 540,
      "max": [
        0.9929220080375671,
        0.8098829984664917
      ],
      "min": [
        0.001992030069231987,
        0.0016165400156751275
      ],
      "type": "VEC2"
    },
    {
      "bufferView": 0,
      "byteOffset": 5040,
      "componentType": 5125,
      "count": 876,
      "type": "SCALAR"
    },
    {
      "bufferView": 2,
      "byteOffset": 29880,
      "componentType": 5126,
      "count": 60,
      "max": [
        -0.31932199001312256,
        0.035282500088214874,
        0.9639719724655151
      ],
      "min": [
        -0.41031399369239807,
        -0.05918949842453003,
        0.9390050172805786
      ],
      "type": "VEC3"
    },
    {
      "bufferView": 2,
      "byteOffset": 30600,
      "componentType": 5126,
      "count": 60,
      "max": [
        1,
        1,
        1
      ],
      "min": [
        -1,
        -1,
        0
      ],
      "type": "VEC3"
    },
    {
      "bufferView": 3,
      "byteOffset": 19920,
      "componentType": 5126,
      "count": 60,
      "max": [
        0,
        1,
        1,
        1
      ],
      "min": [
        -0.000010093689525092486,
        0,
        -1,
        1
      ],
      "type": "VEC4"
    },
    {
      "bufferView": 1,
      "byteOffset": 9960,
      "componentType": 5126,
      "count": 60,
      "max": [
        0.9980080127716064,
        0.20455999672412872
      ],
      "min": [
        0.9084410071372986,
        0.06782980263233185
      ],
      "type": "VEC2"
    },
    {
      "bufferView": 0,
      "byteOffset": 8544,
      "componentType": 5125,
      "count": 90,
      "type": "SCALAR"
    },
    {
      "bufferView": 2,
      "byteOffset": 31320,
      "componentType": 5126,
      "count": 539,
      "max": [
        0.47856101393699646,
        0.4187059998512268,
        1
      ],
      "min": [
        -0.0008355400059372187,
        -0.273499995470047,
        -1
      ],
      "type": "VEC3"
    },
    {
      "bufferView": 2,
      "byteOffset": 37788,
      "componentType": 5126,
      "count": 539,
      "max": [
        1,
        1,
        1
      ],
      "min": [
        -0.960902750492096,
        -1,
        -1
      ],
      "type": "VEC3"
    },
    {
      "bufferView": 3,
      "byteOffset": 20880,
      "componentType": 5126,
      "count": 539,
      "max": [
        1,
        1,
        0.9963012337684631,
        -1
      ],
      "min": [
        -1,
        -0.9557749629020691,
        -1,
        -1
      ],
      "type": "VEC4"
    },
    {
      "bufferView": 1,
      "byteOffset": 10440,
      "componentType": 5126,
      "count": 539,
      "max": [
        0.9929220080375671,
        0.8098829984664917
      ],
      "min": [
        0.001992030069231987,
        0.0016165400156751275
      ],
      "type": "VEC2"
    },
    {
      "bufferView": 0,
      "byteOffset": 8904,
      "componentType": 5125,
      "count": 876,
      "type": "SCALAR"
    },
    {
      "bufferView": 2,
      "byteOffset": 44256,
      "componentType": 5126,
      "count": 193,
      "max": [
        0.4664210081100464,
        -0.13220000267028809,
        0.6774870157241821
      ],
      "min": [
        0.32764700055122375,
        -0.4147999882698059,
        0.3948870003223419
      ],
      "type": "VEC3"
    },
    {
      "bufferView": 2,
      "byteOffset": 46572,
      "componentType": 5126,
      "count": 193,
      "max": [
        1,
        0.9998222589492798,
        0.9998222589492798
      ],
      "min": [
        -1,
        -0.9998222589492798,
        -0.9998222589492798
      ],
      "type": "VEC3"
    },
    {
      "bufferView": 3,
      "byteOffset": 29504,
      "componentType": 5126,
      "count": 193,
      "max": [
        0.629547655582428,
        0.9706387519836426,
        0.24061928689479828,
        -1
      ],
      "min": [
        -1,
        -0.9706420302391052,
        -0.24057701230049133,
        -1
      ],
      "type": "VEC4"
    },
    {
      "bufferView": 1,
      "byteOffset": 14752,
      "componentType": 5126,
      "count": 193,
      "max": [
        0.6942059993743896,
        0.7447469830513
      ],
      "min": [
        0.001992030069231987,
        0.41772499680519104
      ],
      "type": "VEC2"
    },
    {
      "bufferView": 0,
      "byteOffset": 12408,
      "componentType": 5125,
      "count": 360,
      "type": "SCALAR"
    },
    {
      "bufferView": 2,
      "byteOffset": 48888,
      "componentType": 5126,
      "count": 60,
      "max": [
        0.4086970090866089,
        0.035282500088214874,
        -0.9370710253715515
      ],
      "min": [
        0.37230199575424194,
        -0.05918949842453003,
        -0.962037980556488
      ],
      "type": "VEC3"
    },
    {
      "bufferView": 2,
      "byteOffset": 49608,
      "componentType": 5126,
      "count": 60,
      "max": [
        1,
        1,
        0
      ],
      "min": [
        -1,
        -1,
        -1
      ],
      "type": "VEC3"
    },
    {
      "bufferView": 3,
      "byteOffset": 32592,
      "componentType": 5126,
      "count": 60,
      "max": [
        0,
        0.000010027213647845201,
        1,
        -1
      ],
      "min": [
        -1,
        -0.00002091698843287304,
        -1,
        -1
      ],
      "type": "VEC4"
    },
    {
      "bufferView": 1,
      "byteOffset": 16296,
      "componentType": 5126,
      "count": 60,
      "max": [
        0.9671239852905273,
        0.14609499275684357
      ],
      "min": [
        0.611503005027771,
        0.07386550307273865
      ],
      "type": "VEC2"
    },
    {
      "bufferView": 0,
      "byteOffset": 13848,
      "componentType": 5125,
      "count": 90,
      "type": "SCALAR"
    }
  ],
  "asset": {
    "extras": {
      "author": "iceboxX708 (https://sketchfab.com/iceboxX708)",
      "license": "CC-BY-NC-ND-4.0 (http://creativecommons.org/licenses/by-nc-nd/4.0/)",
      "source": "https://sketchfab.com/3d-models/blue-car-29a682aaea664773a7a1c024bf8e9538",
      "title": "Blue Car"
    },
    "generator": "Sketchfab-12.66.0",
    "version": "2.0"
  },
  "bufferViews": [
    {
      "buffer": 0,
      "byteLength": 14208,
      "name": "floatBufferViews",
      "target": 34963,
      "byteOffset": 0
    },
    {
      "buffer": 0,
      "byteLength": 16776,
      "byteOffset": 14208,
      "byteStride": 8,
      "name": "floatBufferViews",
      "target": 34962
    },
    {
      "buffer": 0,
      "byteLength": 50328,
      "byteOffset": 30984,
      "byteStride": 12,
      "name": "floatBufferViews",
      "target": 34962
    },
    {
      "buffer": 0,
      "byteLength": 33552,
      "byteOffset": 81312,
      "byteStride": 16,
      "name": "floatBufferViews",
      "target": 34962
    },
    {
      "buffer": 0,
      "byteOffset": 114864,
      "byteLength": 221284
    },
    {
      "buffer": 0,
      "byteOffset": 336152,
      "byteLength": 184959
    },
    {
      "buffer": 0,
      "byteOffset": 521112,
      "byteLength": 52664
    },
    {
      "buffer": 0,
      "byteOffset": 573776,
      "byteLength": 605
    }
  ],
  "buffers": [
    {
      "name": "blueCar",
      "byteLength": 574384,
      "uri": "data:application/octet-stream;base64,"
    }
  ],
  "images": [
    {
      "name": "LowPolyCar_MAT_baseColor",
      "bufferView": 4,
      "mimeType": "image/jpeg"
    },
    {
      "name": "LowPolyCar_MAT_metallicRoughness",
      "bufferView": 5,
      "mimeType": "image/png"
    },
    {
      "name": "LowPolyCar_MAT_emissive",
      "bufferView": 6,
      "mimeType": "image/jpeg"
    },
    {
      "name": "LowPolyCar_MAT_normal",
      "bufferView": 7,
      "mimeType": "image/png"
    }
  ],
  "materials": [
    {
      "doubleSided": true,
      "emissiveFactor": [
        1,
        1,
        1
      ],
      "emissiveTexture": {
        "index": 2,
        "texCoord": 0
      },
      "name": "LowPolyCar_MAT",
      "normalTexture": {
        "index": 3,
        "texCoord": 0
      },
      "pbrMetallicRoughness": {
        "baseColorTexture": {
          "index": 0,
          "texCoord": 0
        },
        "metallicRoughnessTexture": {
          "index": 1,
          "texCoord": 0
        },
        "baseColorFactor": [
          1,
          1,
          1,
          1
        ],
        "metallicFactor": 1,
        "roughnessFactor": 1
      },
      "alphaMode": "OPAQUE"
    }
  ],
  "meshes": [
    {
      "name": "defaultMaterial",
      "primitives": [
        {
          "attributes": {
            "NORMAL": 1,
            "POSITION": 0,
            "TANGENT": 2,
            "TEXCOORD_0": 3
          },
          "indices": 4,
          "material": 0,
          "mode": 4
        }
      ]
    },
    {
      "name": "defaultMaterial",
      "primitives": [
        {
          "attributes": {
            "NORMAL": 6,
            "POSITION": 5,
            "TANGENT": 7,
            "TEXCOORD_0": 8
          },
          "indices": 9,
          "material": 0,
          "mode": 4
        }
      ]
    },
    {
      "name": "defaultMaterial",
      "primitives": [
        {
          "attributes": {
            "NORMAL": 11,
            "POSITION": 10,
            "TANGENT": 12,
            "TEXCOORD_0": 13
          },
          "indices": 14,
          "material": 0,
          "mode": 4
        }
      ]
    },
    {
      "name": "defaultMaterial",
      "primitives": [
        {
          "attributes": {
            "NORMAL": 16,
            "POSITION": 15,
            "TANGENT": 17,
            "TEXCOORD_0": 18
          },
          "indices": 19,
          "material": 0,
          "mode": 4
        }
      ]
    },
    {
      "name": "defaultMaterial",
      "primitives": [
        {
          "attributes": {
            "NORMAL": 21,
            "POSITION": 20,
            "TANGENT": 22,
            "TEXCOORD_0": 23
          },
          "indices": 24,
          "material": 0,
          "mode": 4
        }
      ]
    },
    {
      "name": "defaultMaterial",
      "primitives": [
        {
          "attributes": {
            "NORMAL": 26,
            "POSITION": 25,
            "TANGENT": 27,
            "TEXCOORD_0": 28
          },
          "indices": 29,
          "material": 0,
          "mode": 4
        }
      ]
    },
    {
      "name": "defaultMaterial",
      "primitives": [
        {
          "attributes": {
            "NORMAL": 31,
            "POSITION": 30,
            "TANGENT": 32,
            "TEXCOORD_0": 33
          },
          "indices": 34,
          "material": 0,
          "mode": 4
        }
      ]
    },
    {
      "name": "defaultMaterial",
      "primitives": [
        {
          "attributes": {
            "NORMAL": 36,
            "POSITION": 35,
            "TANGENT": 37,
            "TEXCOORD_0": 38
          },
          "indices": 39,
          "material": 0,
          "mode": 4
        }
      ]
    },
    {
      "name": "defaultMaterial",
      "primitives": [
        {
          "attributes": {
            "NORMAL": 41,
            "POSITION": 40,
            "TANGENT": 42,
            "TEXCOORD_0": 43
          },
          "indices": 44,
          "material": 0,
          "mode": 4
        }
      ]
    },
    {
      "name": "defaultMaterial",
      "primitives": [
        {
          "attributes": {
            "NORMAL": 46,
            "POSITION": 45,
            "TANGENT": 47,
            "TEXCOORD_0": 48
          },
          "indices": 49,
          "material": 0,
          "mode": 4
        }
      ]
    }
  ],
  "nodes": [
    {
      "children": [
        1
      ],
      "matrix": [
        1,
        0,
        0,
        0,
        0,
        2.220446049250313e-16,
        -1,
        0,
        0,
        1,
        2.220446049250313e-16,
        0,
        0,
        0,
        0,
        1
      ],
      "name": "Sketchfab_model"
    },
    {
      "children": [
        2,
        4,
        6,
        8,
        10,
        12,
        14,
        16,
        18,
        20
      ],
      "matrix": [
        1,
        0,
        0,
        0,
        0,
        -4.371139006309477e-8,
        0.999999999999999,
        0,
        0,
        -0.999999999999999,
        -4.371139006309477e-8,
        0,
        0,
        0,
        0,
        1
      ],
      "name": "Collada visual scene group"
    },
    {
      "children": [
        3
      ],
      "name": "pCube11"
    },
    {
      "mesh": 0,
      "name": "defaultMaterial"
    },
    {
      "children": [
        5
      ],
      "name": "pCylinder11"
    },
    {
      "mesh": 1,
      "name": "defaultMaterial"
    },
    {
      "children": [
        7
      ],
      "name": "pCylinder13"
    },
    {
      "mesh": 2,
      "name": "defaultMaterial"
    },
    {
      "children": [
        9
      ],
      "name": "pCube10"
    },
    {
      "mesh": 3,
      "name": "defaultMaterial"
    },
    {
      "children": [
        11
      ],
      "name": "pCylinder7"
    },
    {
      "mesh": 4,
      "name": "defaultMaterial"
    },
    {
      "children": [
        13
      ],
      "name": "Mesh"
    },
    {
      "mesh": 5,
      "name": "defaultMaterial"
    },
    {
      "children": [
        15
      ],
      "name": "pCube8"
    },
    {
      "mesh": 6,
      "name": "defaultMaterial"
    },
    {
      "children": [
        17
      ],
      "name": "Mesh3"
    },
    {
      "mesh": 7,
      "name": "defaultMaterial"
    },
    {
      "children": [
        19
      ],
      "name": "pCylinder12"
    },
    {
      "mesh": 8,
      "name": "defaultMaterial"
    },
    {
      "children": [
        21
      ],
      "name": "pCube9"
    },
    {
      "mesh": 9,
      "name": "defaultMaterial"
    }
  ],
  "samplers": [
    {
      "magFilter": 9729,
      "minFilter": 9987,
      "wrapS": 10497,
      "wrapT": 10497
    }
  ],
  "scene": 0,
  "scenes": [
    {
      "name": "Sketchfab_Scene",
      "nodes": [
        0
      ]
    }
  ],
  "textures": [
    {
      "sampler": 0,
      "source": 0
    },
    {
      "sampler": 0,
      "source": 1
    },
    {
      "sampler": 0,
      "source": 2
    },
    {
      "sampler": 0,
      "source": 3
    }
  ]
}
